<?xml version="1.0" encoding="UTF-8" standalone="no"?>
<!-- Created with Inkscape (http://www.inkscape.org/) -->

<svg
   width="511.99997"
   height="511.99997"
   viewBox="0 0 135.46666 135.46666"
   version="1.1"
   id="svg1"
   inkscape:version="1.3.2 (091e20e, 2023-11-25, custom)"
   sodipodi:docname="Logo 3 Selected transp.svg"
   xml:space="preserve"
   xmlns:inkscape="http://www.inkscape.org/namespaces/inkscape"
   xmlns:sodipodi="http://sodipodi.sourceforge.net/DTD/sodipodi-0.dtd"
   xmlns="http://www.w3.org/2000/svg"
   xmlns:svg="http://www.w3.org/2000/svg"><sodipodi:namedview
     id="namedview1"
     pagecolor="#ffffff"
     bordercolor="#000000"
     borderopacity="0.25"
     inkscape:showpageshadow="2"
     inkscape:pageopacity="0.0"
     inkscape:pagecheckerboard="0"
     inkscape:deskcolor="#d1d1d1"
     inkscape:document-units="px"
     inkscape:zoom="0.33291705"
     inkscape:cx="255.31885"
     inkscape:cy="255.31885"
     inkscape:window-width="2400"
     inkscape:window-height="1271"
     inkscape:window-x="-9"
     inkscape:window-y="-9"
     inkscape:window-maximized="1"
     inkscape:current-layer="layer1" /><defs
     id="defs1"><inkscape:path-effect
       effect="spiro"
       id="path-effect41"
       is_visible="true"
       lpeversion="1" /><inkscape:path-effect
       effect="spiro"
       id="path-effect43"
       is_visible="true"
       lpeversion="1" /></defs><g
     inkscape:label="Layer 1"
     inkscape:groupmode="layer"
     id="layer1"
     transform="translate(-88.900002,-60.325001)"><path
       style="fill:none;stroke:#000000;stroke-width:2.64583;stroke-linecap:round;stroke-linejoin:round;stroke-dasharray:none"
       d="m 114.14291,113.07581 45.5194,-39.618731 47.95183,39.289531"
       id="path32"
       sodipodi:nodetypes="ccc" /><path
       style="fill:none;stroke:#000000;stroke-width:2.64583;stroke-linecap:round;stroke-linejoin:round;stroke-dasharray:none"
       d="m 122.18604,176.33711 h 78.05208 v -58.20833"
       id="path33"
       sodipodi:nodetypes="ccc" /><path
       style="fill:none;stroke:#000000;stroke-width:2.64583;stroke-linecap:round;stroke-linejoin:round;stroke-dasharray:none"
       d="m 114.14993,137.73213 v 32.17872 h 11.79904 v -32.17872"
       id="path34"
       sodipodi:nodetypes="cccc" /><path
       style="fill:none;stroke:#000000;stroke-width:1.71438;stroke-linecap:round;stroke-linejoin:round;stroke-dasharray:none"
       d="m 42.239686,153.45832 c -1.041417,-0.39778 -1.975015,-1.07396 -2.677707,-1.93941 -0.702693,-0.86545 -1.172738,-1.91801 -1.348166,-3.01892 -0.250139,-1.56977 0.113154,-3.22914 0.996321,-4.55079 0.883167,-1.32165 2.277276,-2.2922 3.823302,-2.66171"
       id="path35"
       inkscape:path-effect="#path-effect41"
       inkscape:original-d="m 42.239686,153.45832 c -1.373174,-1.65277 -2.652702,-3.30555 -4.025873,-4.95833 -1.373175,-1.65277 3.446449,-4.89652 4.819623,-7.2125"
       transform="matrix(1.486494,0,0,1.6023097,51.36089,-108.15562)"
       sodipodi:nodetypes="csc" /><path
       style="fill:none;stroke:#000000;stroke-width:1.71438;stroke-linecap:round;stroke-linejoin:round;stroke-dasharray:none"
       d="m 42.333333,153.45832 c -1.060701,-0.38077 -2.016209,-1.05016 -2.7364,-1.91699 -0.720191,-0.86684 -1.203154,-1.92883 -1.38312,-3.04134 -0.256122,-1.5833 0.116652,-3.25962 1.019632,-4.58516 0.902981,-1.32554 2.326481,-2.28609 3.893638,-2.62734"
       id="path36"
       inkscape:path-effect="#path-effect43"
       inkscape:original-d="m 42.333333,153.45832 c -1.373174,-1.65277 -2.746349,-3.30555 -4.11952,-4.95833 -1.373175,-1.65277 3.540096,-4.89652 4.91327,-7.2125"
       transform="matrix(-1.486494,0,0,1.6023097,188.87721,-108.15562)"
       sodipodi:nodetypes="csc" /><path
       style="fill:none;stroke:#000000;stroke-width:2.64583;stroke-linecap:round;stroke-linejoin:round;stroke-dasharray:none"
       d="m 115.86234,118.41588 -0.036,8.94234 8.51342,-0.0397 0.036,-9.14132"
       id="path37"
       sodipodi:nodetypes="cccc" /><path
       id="path43"
       style="fill:#ffffff;stroke:#000000;stroke-width:2.64583;stroke-linecap:round;stroke-linejoin:round"
       d="m 144.50311,149.11244 c -1.79113,-2.91302 -2.82372,-6.3397 -2.82372,-10.00682 0,-10.58985 8.61109,-19.17462 19.2334,-19.17462 2.12626,1e-5 4.17193,0.34398 6.08408,0.97915 m 6.33794,3.55592 c 4.16641,3.51726 6.81137,8.77046 6.81137,14.63955 0,10.58984 -8.61108,19.17461 -19.23339,19.17461 -4.43301,0 -8.51574,-1.49516 -11.76847,-4.00724"
       sodipodi:nodetypes="cssccssc" /><path
       style="fill:#ffffff;stroke:#000000;stroke-width:2.64583;stroke-linecap:round;stroke-linejoin:round"
       d="m 148.39477,154.13314 3.05257,9.62147"
       id="path44" /><path
       style="fill:#ffffff;stroke:#000000;stroke-width:2.64583;stroke-linecap:round;stroke-linejoin:round"
       d="m 148.87189,153.62353 9.57205,-3.20422"
       id="path45" /><path
       style="fill:#ffffff;stroke:#000000;stroke-width:2.64583;stroke-linecap:round;stroke-linejoin:round"
       d="m 167.46411,120.65344 -5.93266,-8.16667"
       id="path46" /><path
       style="fill:#ffffff;stroke:#000000;stroke-width:2.64583;stroke-linecap:round;stroke-linejoin:round"
       d="m 166.87414,121.48625 -8.07192,6.06096"
       id="path47" /></g></svg>
